<?xml version="1.0" encoding="UTF-8" standalone="no"?><svg xmlns="http://www.w3.org/2000/svg" xmlns:xlink="http://www.w3.org/1999/xlink" contentStyleType="text/css" height="754px" preserveAspectRatio="none" style="width:453px;height:754px;background:#FFFFFF;" version="1.1" viewBox="0 0 453 754" width="453px" zoomAndPan="magnify"><defs/><g><!--cluster SuperEasyShare.entities--><g id="cluster_SuperEasyShare.entities"><path d="M8.5,6 L202.5,6 A3.75,3.75 0 0 1 205,8.5 L212,28.2969 L443.5,28.2969 A2.5,2.5 0 0 1 446,30.7969 L446,726.5 A2.5,2.5 0 0 1 443.5,729 L8.5,729 A2.5,2.5 0 0 1 6,726.5 L6,8.5 A2.5,2.5 0 0 1 8.5,6 " fill="none" style="stroke:#000000;stroke-width:1.5;"/><line style="stroke:#000000;stroke-width:1.5;" x1="6" x2="212" y1="28.2969" y2="28.2969"/><text fill="#000000" font-family="sans-serif" font-size="14" font-weight="bold" lengthAdjust="spacing" textLength="193" x="10" y="20.9951">SuperEasyShare.entities</text></g><!--class SuperEasyShare.entities.Trip--><a href="Trip.html" target="_top" title="Trip.html" xlink:actuate="onRequest" xlink:href="Trip.html" xlink:show="new" xlink:title="Trip.html" xlink:type="simple"><g id="elem_SuperEasyShare.entities.Trip"><rect codeLine="3" fill="#F1F1F1" height="341.3438" id="SuperEasyShare.entities.Trip" rx="2.5" ry="2.5" style="stroke:#181818;stroke-width:0.5;" width="407" x="22.5" y="41"/><ellipse cx="208.75" cy="57" fill="#ADD1B2" rx="11" ry="11" style="stroke:#181818;stroke-width:1.0;"/><path d="M211.7188,62.6406 Q211.1406,62.9375 210.5,63.0781 Q209.8594,63.2344 209.1563,63.2344 Q206.6563,63.2344 205.3281,61.5938 Q204.0156,59.9375 204.0156,56.8125 Q204.0156,53.6875 205.3281,52.0313 Q206.6563,50.375 209.1563,50.375 Q209.8594,50.375 210.5,50.5313 Q211.1563,50.6875 211.7188,50.9844 L211.7188,53.7031 Q211.0938,53.125 210.5,52.8594 Q209.9063,52.5781 209.2813,52.5781 Q207.9375,52.5781 207.25,53.6563 Q206.5625,54.7188 206.5625,56.8125 Q206.5625,58.9063 207.25,59.9844 Q207.9375,61.0469 209.2813,61.0469 Q209.9063,61.0469 210.5,60.7813 Q211.0938,60.5 211.7188,59.9219 L211.7188,62.6406 Z " fill="#000000"/><text fill="#000000" font-family="sans-serif" font-size="14" lengthAdjust="spacing" textLength="26" x="229.25" y="61.8467">Trip</text><line style="stroke:#181818;stroke-width:0.5;" x1="23.5" x2="428.5" y1="73" y2="73"/><rect fill="none" height="6" style="stroke:#C82930;stroke-width:1.0;" width="6" x="30.5" y="83.6484"/><text fill="#000000" font-family="sans-serif" font-size="14" lengthAdjust="spacing" textLength="53" x="42.5" y="89.9951">car: Car</text><rect fill="none" height="6" style="stroke:#C82930;stroke-width:1.0;" width="6" x="30.5" y="99.9453"/><text fill="#000000" font-family="sans-serif" font-size="14" lengthAdjust="spacing" textLength="119" x="42.5" y="106.292">renter: Customer</text><rect fill="none" height="6" style="stroke:#C82930;stroke-width:1.0;" width="6" x="30.5" y="116.2422"/><text fill="#000000" font-family="sans-serif" font-size="14" lengthAdjust="spacing" textLength="141" x="42.5" y="122.5889">startTime: DateTime</text><rect fill="none" height="6" style="stroke:#C82930;stroke-width:1.0;" width="6" x="30.5" y="132.5391"/><text fill="#000000" font-family="sans-serif" font-size="14" lengthAdjust="spacing" textLength="137" x="42.5" y="138.8857">endTime: DateTime</text><rect fill="none" height="6" style="stroke:#C82930;stroke-width:1.0;" width="6" x="30.5" y="148.8359"/><text fill="#000000" font-family="sans-serif" font-size="14" lengthAdjust="spacing" textLength="122" x="42.5" y="155.1826">status: TripStatus</text><rect fill="none" height="6" style="stroke:#C82930;stroke-width:1.0;" width="6" x="30.5" y="165.1328"/><text fill="#000000" font-family="sans-serif" font-size="14" lengthAdjust="spacing" textLength="116" x="42.5" y="171.4795">distance: double</text><line style="stroke:#181818;stroke-width:0.5;" x1="23.5" x2="428.5" y1="178.7813" y2="178.7813"/><ellipse cx="33.5" cy="192.4297" fill="#84BE84" rx="3" ry="3" style="stroke:#038048;stroke-width:1.0;"/><text fill="#000000" font-family="sans-serif" font-size="14" lengthAdjust="spacing" textLength="175" x="42.5" y="195.7764">Trip(Car, Customer, Rate)</text><ellipse cx="33.5" cy="208.7266" fill="#84BE84" rx="3" ry="3" style="stroke:#038048;stroke-width:1.0;"/><text fill="#000000" font-family="sans-serif" font-size="14" lengthAdjust="spacing" textLength="250" x="42.5" y="212.0732">Trip(Car, Customer, Rate, DateTime)</text><ellipse cx="33.5" cy="225.0234" fill="#84BE84" rx="3" ry="3" style="stroke:#038048;stroke-width:1.0;"/><text fill="#000000" font-family="sans-serif" font-size="14" lengthAdjust="spacing" textLength="381" x="42.5" y="228.3701">Trip(Car, Customer, Rate, DateTime, DateTime, double)</text><ellipse cx="33.5" cy="241.3203" fill="#84BE84" rx="3" ry="3" style="stroke:#038048;stroke-width:1.0;"/><text fill="#000000" font-family="sans-serif" font-size="14" lengthAdjust="spacing" textLength="62" x="42.5" y="244.667">Trip(Trip)</text><ellipse cx="33.5" cy="257.6172" fill="#84BE84" rx="3" ry="3" style="stroke:#038048;stroke-width:1.0;"/><text fill="#000000" font-family="sans-serif" font-size="14" lengthAdjust="spacing" textLength="143" x="42.5" y="260.9639">start(DateTime): Trip</text><ellipse cx="33.5" cy="273.9141" fill="#84BE84" rx="3" ry="3" style="stroke:#038048;stroke-width:1.0;"/><text fill="#000000" font-family="sans-serif" font-size="14" lengthAdjust="spacing" textLength="195" x="42.5" y="277.2607">end(DateTime, double): Trip</text><ellipse cx="33.5" cy="290.2109" fill="#84BE84" rx="3" ry="3" style="stroke:#038048;stroke-width:1.0;"/><text fill="#000000" font-family="sans-serif" font-size="14" lengthAdjust="spacing" textLength="66" x="42.5" y="293.5576">total(): int</text><ellipse cx="33.5" cy="306.5078" fill="#84BE84" rx="3" ry="3" style="stroke:#038048;stroke-width:1.0;"/><text fill="#000000" font-family="sans-serif" font-size="14" lengthAdjust="spacing" textLength="175" x="42.5" y="309.8545">getStartTime(): DateTime</text><ellipse cx="33.5" cy="322.8047" fill="#84BE84" rx="3" ry="3" style="stroke:#038048;stroke-width:1.0;"/><text fill="#000000" font-family="sans-serif" font-size="14" lengthAdjust="spacing" textLength="170" x="42.5" y="326.1514">getEndTime(): DateTime</text><ellipse cx="33.5" cy="339.1016" fill="#84BE84" rx="3" ry="3" style="stroke:#038048;stroke-width:1.0;"/><text fill="#000000" font-family="sans-serif" font-size="14" lengthAdjust="spacing" textLength="151" x="42.5" y="342.4482">getDistance(): double</text><ellipse cx="33.5" cy="355.3984" fill="#84BE84" rx="3" ry="3" style="stroke:#038048;stroke-width:1.0;"/><text fill="#000000" font-family="sans-serif" font-size="14" lengthAdjust="spacing" textLength="156" x="42.5" y="358.7451">getStatus(): TripStatus</text><ellipse cx="33.5" cy="371.6953" fill="#84BE84" rx="3" ry="3" style="stroke:#038048;stroke-width:1.0;"/><text fill="#000000" font-family="sans-serif" font-size="14" lengthAdjust="spacing" textLength="93" x="42.5" y="375.042">duration(): int</text></g></a><!--class SuperEasyShare.entities.PerMinuteRate--><a href="PerMinuteRate.html" target="_top" title="PerMinuteRate.html" xlink:actuate="onRequest" xlink:href="PerMinuteRate.html" xlink:show="new" xlink:title="PerMinuteRate.html" xlink:type="simple"><g id="elem_SuperEasyShare.entities.PerMinuteRate"><rect codeLine="24" fill="#F1F1F1" height="96.8906" id="SuperEasyShare.entities.PerMinuteRate" rx="2.5" ry="2.5" style="stroke:#181818;stroke-width:0.5;" width="155" x="40.5" y="600"/><ellipse cx="64.95" cy="616" fill="#ADD1B2" rx="11" ry="11" style="stroke:#181818;stroke-width:1.0;"/><path d="M67.9188,621.6406 Q67.3406,621.9375 66.7,622.0781 Q66.0594,622.2344 65.3563,622.2344 Q62.8563,622.2344 61.5281,620.5938 Q60.2156,618.9375 60.2156,615.8125 Q60.2156,612.6875 61.5281,611.0313 Q62.8563,609.375 65.3563,609.375 Q66.0594,609.375 66.7,609.5313 Q67.3563,609.6875 67.9188,609.9844 L67.9188,612.7031 Q67.2938,612.125 66.7,611.8594 Q66.1063,611.5781 65.4813,611.5781 Q64.1375,611.5781 63.45,612.6563 Q62.7625,613.7188 62.7625,615.8125 Q62.7625,617.9063 63.45,618.9844 Q64.1375,620.0469 65.4813,620.0469 Q66.1063,620.0469 66.7,619.7813 Q67.2938,619.5 67.9188,618.9219 L67.9188,621.6406 Z " fill="#000000"/><text fill="#000000" font-family="sans-serif" font-size="14" lengthAdjust="spacing" textLength="102" x="81.05" y="620.8467">PerMinuteRate</text><line style="stroke:#181818;stroke-width:0.5;" x1="41.5" x2="194.5" y1="632" y2="632"/><rect fill="none" height="6" style="stroke:#C82930;stroke-width:1.0;" width="6" x="48.5" y="642.6484"/><text fill="#000000" font-family="sans-serif" font-size="14" lengthAdjust="spacing" textLength="96" x="60.5" y="648.9951">perMinute: int</text><line style="stroke:#181818;stroke-width:0.5;" x1="41.5" x2="194.5" y1="656.2969" y2="656.2969"/><ellipse cx="51.5" cy="669.9453" fill="#84BE84" rx="3" ry="3" style="stroke:#038048;stroke-width:1.0;"/><text fill="#000000" font-family="sans-serif" font-size="14" lengthAdjust="spacing" textLength="129" x="60.5" y="673.292">PerMinuteRate(int)</text><ellipse cx="51.5" cy="686.2422" fill="#84BE84" rx="3" ry="3" style="stroke:#038048;stroke-width:1.0;"/><text fill="#000000" font-family="sans-serif" font-size="14" lengthAdjust="spacing" textLength="92" x="60.5" y="689.5889">total(Trip): int</text></g></a><!--class SuperEasyShare.entities.Rate--><a href="Rate.html" target="_top" title="Rate.html" xlink:actuate="onRequest" xlink:href="Rate.html" xlink:show="new" xlink:title="Rate.html" xlink:type="simple"><g id="elem_SuperEasyShare.entities.Rate"><rect codeLine="30" fill="#F1F1F1" height="64.2969" id="SuperEasyShare.entities.Rate" rx="2.5" ry="2.5" style="stroke:#181818;stroke-width:0.5;" width="118" x="167" y="459"/><ellipse cx="206.3" cy="475" fill="#A9DCDF" rx="11" ry="11" style="stroke:#181818;stroke-width:1.0;"/><path d="M206.4094,470.3438 L205.2531,475.4219 L207.5813,475.4219 L206.4094,470.3438 Z M204.925,468.1094 L207.9094,468.1094 L211.2688,480.5 L208.8156,480.5 L208.05,477.4375 L204.7688,477.4375 L204.0188,480.5 L201.5813,480.5 L204.925,468.1094 Z " fill="#000000"/><text fill="#000000" font-family="sans-serif" font-size="14" font-style="italic" lengthAdjust="spacing" textLength="32" x="225.7" y="479.8467">Rate</text><line style="stroke:#181818;stroke-width:0.5;" x1="168" x2="284" y1="491" y2="491"/><line style="stroke:#181818;stroke-width:0.5;" x1="168" x2="284" y1="499" y2="499"/><ellipse cx="178" cy="512.6484" fill="#84BE84" rx="3" ry="3" style="stroke:#038048;stroke-width:1.0;"/><text fill="#000000" font-family="sans-serif" font-size="14" font-style="italic" lengthAdjust="spacing" textLength="92" x="187" y="515.9951">total(Trip): int</text></g></a><!--class SuperEasyShare.entities.LongTermRate--><a href="LongTermRate.html" target="_top" title="LongTermRate.html" xlink:actuate="onRequest" xlink:href="LongTermRate.html" xlink:show="new" xlink:title="LongTermRate.html" xlink:type="simple"><g id="elem_SuperEasyShare.entities.LongTermRate"><rect codeLine="34" fill="#F1F1F1" height="129.4844" id="SuperEasyShare.entities.LongTermRate" rx="2.5" ry="2.5" style="stroke:#181818;stroke-width:0.5;" width="180" x="231" y="584"/><ellipse cx="266.7" cy="600" fill="#ADD1B2" rx="11" ry="11" style="stroke:#181818;stroke-width:1.0;"/><path d="M269.6688,605.6406 Q269.0906,605.9375 268.45,606.0781 Q267.8094,606.2344 267.1063,606.2344 Q264.6063,606.2344 263.2781,604.5938 Q261.9656,602.9375 261.9656,599.8125 Q261.9656,596.6875 263.2781,595.0313 Q264.6063,593.375 267.1063,593.375 Q267.8094,593.375 268.45,593.5313 Q269.1063,593.6875 269.6688,593.9844 L269.6688,596.7031 Q269.0438,596.125 268.45,595.8594 Q267.8563,595.5781 267.2313,595.5781 Q265.8875,595.5781 265.2,596.6563 Q264.5125,597.7188 264.5125,599.8125 Q264.5125,601.9063 265.2,602.9844 Q265.8875,604.0469 267.2313,604.0469 Q267.8563,604.0469 268.45,603.7813 Q269.0438,603.5 269.6688,602.9219 L269.6688,605.6406 Z " fill="#000000"/><text fill="#000000" font-family="sans-serif" font-size="14" lengthAdjust="spacing" textLength="102" x="285.3" y="604.8467">LongTermRate</text><line style="stroke:#181818;stroke-width:0.5;" x1="232" x2="410" y1="616" y2="616"/><rect fill="none" height="6" style="stroke:#C82930;stroke-width:1.0;" width="6" x="239" y="626.6484"/><text fill="#000000" font-family="sans-serif" font-size="14" lengthAdjust="spacing" textLength="119" x="251" y="632.9951">baseDuration: int</text><rect fill="none" height="6" style="stroke:#C82930;stroke-width:1.0;" width="6" x="239" y="642.9453"/><text fill="#000000" font-family="sans-serif" font-size="14" lengthAdjust="spacing" textLength="114" x="251" y="649.292">baseAmount: int</text><rect fill="none" height="6" style="stroke:#C82930;stroke-width:1.0;" width="6" x="239" y="659.2422"/><text fill="#000000" font-family="sans-serif" font-size="14" lengthAdjust="spacing" textLength="75" x="251" y="665.5889">perDay: int</text><line style="stroke:#181818;stroke-width:0.5;" x1="232" x2="410" y1="672.8906" y2="672.8906"/><ellipse cx="242" cy="686.5391" fill="#84BE84" rx="3" ry="3" style="stroke:#038048;stroke-width:1.0;"/><text fill="#000000" font-family="sans-serif" font-size="14" lengthAdjust="spacing" textLength="154" x="251" y="689.8857">LongTermRate(int, int)</text><ellipse cx="242" cy="702.8359" fill="#84BE84" rx="3" ry="3" style="stroke:#038048;stroke-width:1.0;"/><text fill="#000000" font-family="sans-serif" font-size="14" lengthAdjust="spacing" textLength="92" x="251" y="706.1826">total(Trip): int</text></g></a><!--link SuperEasyShare.entities.Trip to SuperEasyShare.entities.Rate--><g id="link_SuperEasyShare.entities.Trip_SuperEasyShare.entities.Rate"><path codeLine="42" d="M226,382.31 C226,409.05 226,434.17 226,453.41 " fill="none" id="SuperEasyShare.entities.Trip-to-SuperEasyShare.entities.Rate" style="stroke:#181818;stroke-width:1.0;"/><polygon fill="#181818" points="226,458.68,230,449.68,226,453.68,222,449.68,226,458.68" style="stroke:#181818;stroke-width:1.0;"/><text fill="#000000" font-family="sans-serif" font-size="13" lengthAdjust="spacing" textLength="26" x="227" y="425.0669">rate</text></g><!--reverse link SuperEasyShare.entities.Rate to SuperEasyShare.entities.PerMinuteRate--><g id="link_SuperEasyShare.entities.Rate_SuperEasyShare.entities.PerMinuteRate"><path codeLine="43" d="M192.88,539.69 C179.6,558.81 164.33,580.8 151.05,599.91 " fill="none" id="SuperEasyShare.entities.Rate-backto-SuperEasyShare.entities.PerMinuteRate" style="stroke:#181818;stroke-width:1.0;"/><polygon fill="none" points="187.25,535.53,204.4,523.09,198.74,543.51,187.25,535.53" style="stroke:#181818;stroke-width:1.0;"/></g><!--reverse link SuperEasyShare.entities.Rate to SuperEasyShare.entities.LongTermRate--><g id="link_SuperEasyShare.entities.Rate_SuperEasyShare.entities.LongTermRate"><path codeLine="44" d="M255.43,540.17 C263.83,553.93 273.13,569.14 282.01,583.68 " fill="none" id="SuperEasyShare.entities.Rate-backto-SuperEasyShare.entities.LongTermRate" style="stroke:#181818;stroke-width:1.0;"/><polygon fill="none" points="249.45,543.81,245,523.09,261.4,536.51,249.45,543.81" style="stroke:#181818;stroke-width:1.0;"/></g><text fill="#888888" font-family="sans-serif" font-size="10" lengthAdjust="spacing" textLength="186" x="126.5" y="744.2822">UMLDoclet 2.1.0, PlantUML 1.2022.14</text><!--SRC=[dLJ1Ri8m3Btp5RvCAg95suxLD6bQkO64LdP2EuJMWqfjWX9t4cBy-vAqi0PInDP3c-Ozso_FLW00EAjGRLc6aDPRb1EcTkc6IHmZfu8ALB0V3A1zif8f1GjPR66vD9_nXghouqDpeFD46PCnl3BfxagT4WrGAn8Ldg6AcAH5KM4C2ICqAvU0FBy6wtYgLMpLfNRjudcX6JpJyRceLwKRFJ9HWLOSdjI5yARh36-ZXITHVmxehXfblXJcTRPl3GjETPkJknHjMN2HtKSaGQmCD5HmSf4rKdhiZ25upJUiITEUgvoaxO4X-RhG5DEj2uQzZHpbjMHK27ukzt0-ftEKiuBNXCPmFR3EVy_aReySZnLEVA3XeSz4swbUPMobIBACMecjidv1-sF0uRRyJTgfuEi5ogfDt_tjEVUAAKnQOo-FRk6NIjISFA3sB64xZs7TkiQl4FvdchrmekZPsXM3LlaxD_Q8JzzHvBRRWtVL33eLCdijmQSGvlC-coOYAv7WSVmmlWzXNZ9EUXVklb0gEtS_]--></g></svg>