<?xml version="1.0" encoding="UTF-8" standalone="no"?><svg xmlns="http://www.w3.org/2000/svg" xmlns:xlink="http://www.w3.org/1999/xlink" contentStyleType="text/css" height="413px" preserveAspectRatio="none" style="width:428px;height:413px;background:#FFFFFF;" version="1.1" viewBox="0 0 428 413" width="428px" zoomAndPan="magnify"><defs/><g><!--class SuperEasyShare.entities.Trip--><a href="Trip.html" target="_top" title="Trip.html" xlink:actuate="onRequest" xlink:href="Trip.html" xlink:show="new" xlink:title="Trip.html" xlink:type="simple"><g id="elem_SuperEasyShare.entities.Trip"><rect codeLine="5" fill="#F1F1F1" height="379.875" id="SuperEasyShare.entities.Trip" rx="2.5" ry="2.5" style="stroke:#181818;stroke-width:0.5;" width="407" x="7" y="7"/><ellipse cx="146.25" cy="25.9688" fill="#ADD1B2" rx="11" ry="11" style="stroke:#181818;stroke-width:1.0;"/><path d="M149.2188,31.6094 Q148.6406,31.9063 148,32.0469 Q147.3594,32.2031 146.6563,32.2031 Q144.1563,32.2031 142.8281,30.5625 Q141.5156,28.9063 141.5156,25.7813 Q141.5156,22.6563 142.8281,21 Q144.1563,19.3438 146.6563,19.3438 Q147.3594,19.3438 148,19.5 Q148.6563,19.6563 149.2188,19.9531 L149.2188,22.6719 Q148.5938,22.0938 148,21.8281 Q147.4063,21.5469 146.7813,21.5469 Q145.4375,21.5469 144.75,22.625 Q144.0625,23.6875 144.0625,25.7813 Q144.0625,27.875 144.75,28.9531 Q145.4375,30.0156 146.7813,30.0156 Q147.4063,30.0156 148,29.75 Q148.5938,29.4688 149.2188,28.8906 L149.2188,31.6094 Z " fill="#000000"/><text fill="#000000" font-family="sans-serif" font-size="14" lengthAdjust="spacing" textLength="26" x="213.75" y="24.9951">Trip</text><text fill="#000000" font-family="sans-serif" font-size="10" lengthAdjust="spacing" textLength="120" x="166.75" y="37.5791">SuperEasyShare.entities</text><line style="stroke:#181818;stroke-width:0.5;" x1="8" x2="413" y1="44.9375" y2="44.9375"/><rect fill="none" height="6" style="stroke:#C82930;stroke-width:1.0;" width="6" x="15" y="55.5859"/><text fill="#000000" font-family="sans-serif" font-size="14" lengthAdjust="spacing" textLength="53" x="27" y="61.9326">car: Car</text><rect fill="none" height="6" style="stroke:#C82930;stroke-width:1.0;" width="6" x="15" y="71.8828"/><text fill="#000000" font-family="sans-serif" font-size="14" lengthAdjust="spacing" textLength="119" x="27" y="78.2295">renter: Customer</text><rect fill="none" height="6" style="stroke:#C82930;stroke-width:1.0;" width="6" x="15" y="88.1797"/><text fill="#000000" font-family="sans-serif" font-size="14" lengthAdjust="spacing" textLength="68" x="27" y="94.5264">rate: Rate</text><rect fill="none" height="6" style="stroke:#C82930;stroke-width:1.0;" width="6" x="15" y="104.4766"/><text fill="#000000" font-family="sans-serif" font-size="14" lengthAdjust="spacing" textLength="141" x="27" y="110.8232">startTime: DateTime</text><rect fill="none" height="6" style="stroke:#C82930;stroke-width:1.0;" width="6" x="15" y="120.7734"/><text fill="#000000" font-family="sans-serif" font-size="14" lengthAdjust="spacing" textLength="137" x="27" y="127.1201">endTime: DateTime</text><rect fill="none" height="6" style="stroke:#C82930;stroke-width:1.0;" width="6" x="15" y="137.0703"/><text fill="#000000" font-family="sans-serif" font-size="14" lengthAdjust="spacing" textLength="122" x="27" y="143.417">status: TripStatus</text><rect fill="none" height="6" style="stroke:#C82930;stroke-width:1.0;" width="6" x="15" y="153.3672"/><text fill="#000000" font-family="sans-serif" font-size="14" lengthAdjust="spacing" textLength="116" x="27" y="159.7139">distance: double</text><line style="stroke:#181818;stroke-width:0.5;" x1="8" x2="413" y1="167.0156" y2="167.0156"/><ellipse cx="18" cy="180.6641" fill="#84BE84" rx="3" ry="3" style="stroke:#038048;stroke-width:1.0;"/><text fill="#000000" font-family="sans-serif" font-size="14" lengthAdjust="spacing" textLength="175" x="27" y="184.0107">Trip(Car, Customer, Rate)</text><ellipse cx="18" cy="196.9609" fill="#84BE84" rx="3" ry="3" style="stroke:#038048;stroke-width:1.0;"/><text fill="#000000" font-family="sans-serif" font-size="14" lengthAdjust="spacing" textLength="250" x="27" y="200.3076">Trip(Car, Customer, Rate, DateTime)</text><ellipse cx="18" cy="213.2578" fill="#84BE84" rx="3" ry="3" style="stroke:#038048;stroke-width:1.0;"/><text fill="#000000" font-family="sans-serif" font-size="14" lengthAdjust="spacing" textLength="381" x="27" y="216.6045">Trip(Car, Customer, Rate, DateTime, DateTime, double)</text><ellipse cx="18" cy="229.5547" fill="#84BE84" rx="3" ry="3" style="stroke:#038048;stroke-width:1.0;"/><text fill="#000000" font-family="sans-serif" font-size="14" lengthAdjust="spacing" textLength="62" x="27" y="232.9014">Trip(Trip)</text><ellipse cx="18" cy="245.8516" fill="#84BE84" rx="3" ry="3" style="stroke:#038048;stroke-width:1.0;"/><text fill="#000000" font-family="sans-serif" font-size="14" lengthAdjust="spacing" textLength="143" x="27" y="249.1982">start(DateTime): Trip</text><ellipse cx="18" cy="262.1484" fill="#84BE84" rx="3" ry="3" style="stroke:#038048;stroke-width:1.0;"/><text fill="#000000" font-family="sans-serif" font-size="14" lengthAdjust="spacing" textLength="195" x="27" y="265.4951">end(DateTime, double): Trip</text><ellipse cx="18" cy="278.4453" fill="#84BE84" rx="3" ry="3" style="stroke:#038048;stroke-width:1.0;"/><text fill="#000000" font-family="sans-serif" font-size="14" lengthAdjust="spacing" textLength="66" x="27" y="281.792">total(): int</text><ellipse cx="18" cy="294.7422" fill="#84BE84" rx="3" ry="3" style="stroke:#038048;stroke-width:1.0;"/><text fill="#000000" font-family="sans-serif" font-size="14" lengthAdjust="spacing" textLength="175" x="27" y="298.0889">getStartTime(): DateTime</text><ellipse cx="18" cy="311.0391" fill="#84BE84" rx="3" ry="3" style="stroke:#038048;stroke-width:1.0;"/><text fill="#000000" font-family="sans-serif" font-size="14" lengthAdjust="spacing" textLength="170" x="27" y="314.3857">getEndTime(): DateTime</text><ellipse cx="18" cy="327.3359" fill="#84BE84" rx="3" ry="3" style="stroke:#038048;stroke-width:1.0;"/><text fill="#000000" font-family="sans-serif" font-size="14" lengthAdjust="spacing" textLength="151" x="27" y="330.6826">getDistance(): double</text><ellipse cx="18" cy="343.6328" fill="#84BE84" rx="3" ry="3" style="stroke:#038048;stroke-width:1.0;"/><text fill="#000000" font-family="sans-serif" font-size="14" lengthAdjust="spacing" textLength="156" x="27" y="346.9795">getStatus(): TripStatus</text><ellipse cx="18" cy="359.9297" fill="#84BE84" rx="3" ry="3" style="stroke:#038048;stroke-width:1.0;"/><text fill="#000000" font-family="sans-serif" font-size="14" lengthAdjust="spacing" textLength="106" x="27" y="363.2764">getRate(): Rate</text><ellipse cx="18" cy="376.2266" fill="#84BE84" rx="3" ry="3" style="stroke:#038048;stroke-width:1.0;"/><text fill="#000000" font-family="sans-serif" font-size="14" lengthAdjust="spacing" textLength="93" x="27" y="379.5732">duration(): int</text></g></a><text fill="#888888" font-family="sans-serif" font-size="10" lengthAdjust="spacing" textLength="186" x="117" y="403.1572">UMLDoclet 2.1.0, PlantUML 1.2022.14</text><!--SRC=[bLF1IiD04Btx5KD1I6aChNWAqeljJK5CFTKUjidKB2IxONSYLF7VdKbg4rEBcCFkvhqtkozl9m007WcCAj5NAiK4A-KKMGV66hnW6dAT8M1PqHvs6elC3z4IARSCDtXQAEzXTElrEyQpc_dAwUh575wdywIkq2sLtoUvSXYX8KqQ_GYKXpDS95l0UYrJb5DPR3RmqPmbprMgN0ntodM8uqeKiFPaI-mpYZ269nuxp9DojD8b4micPDMHQB9p5DTHxMCGMqcpxhXCCsjIhijilIswgece0tOR7js5ZP_ntvBmQE9VulwgTJCibw67DO44nxFQB-neZYGusN4e8akg21ZMXZhq5IdvJbl8ar15iMmZFyil3jcAO9XkUm1VHJ3-zM948Ea8_QCB9bdDlQ6jwNl-F7HqqqwmirQcvuVxXKqB_cUkeraq3U6nK8OOXSitTBxPuWi0]--></g></svg>