<?xml version="1.0" encoding="UTF-8" standalone="no"?><svg xmlns="http://www.w3.org/2000/svg" xmlns:xlink="http://www.w3.org/1999/xlink" contentStyleType="text/css" height="390px" preserveAspectRatio="none" style="width:236px;height:390px;background:#FFFFFF;" version="1.1" viewBox="0 0 236 390" width="236px" zoomAndPan="magnify"><defs/><g><!--class SuperEasyShare.provided.DateTime--><a href="DateTime.html" target="_top" title="DateTime.html" xlink:actuate="onRequest" xlink:href="DateTime.html" xlink:show="new" xlink:title="DateTime.html" xlink:type="simple"><g id="elem_SuperEasyShare.provided.DateTime"><rect codeLine="5" fill="#F1F1F1" height="233.2031" id="SuperEasyShare.provided.DateTime" rx="2.5" ry="2.5" style="stroke:#181818;stroke-width:0.5;" width="220" x="9" y="132"/><ellipse cx="51.45" cy="150.9688" fill="#ADD1B2" rx="11" ry="11" style="stroke:#181818;stroke-width:1.0;"/><path d="M54.4188,156.6094 Q53.8406,156.9063 53.2,157.0469 Q52.5594,157.2031 51.8563,157.2031 Q49.3563,157.2031 48.0281,155.5625 Q46.7156,153.9063 46.7156,150.7813 Q46.7156,147.6563 48.0281,146 Q49.3563,144.3438 51.8563,144.3438 Q52.5594,144.3438 53.2,144.5 Q53.8563,144.6563 54.4188,144.9531 L54.4188,147.6719 Q53.7938,147.0938 53.2,146.8281 Q52.6063,146.5469 51.9813,146.5469 Q50.6375,146.5469 49.95,147.625 Q49.2625,148.6875 49.2625,150.7813 Q49.2625,152.875 49.95,153.9531 Q50.6375,155.0156 51.9813,155.0156 Q52.6063,155.0156 53.2,154.75 Q53.7938,154.4688 54.4188,153.8906 L54.4188,156.6094 Z " fill="#000000"/><text fill="#000000" font-family="sans-serif" font-size="14" lengthAdjust="spacing" textLength="67" x="101.55" y="149.9951">DateTime</text><text fill="#000000" font-family="sans-serif" font-size="10" lengthAdjust="spacing" textLength="127" x="71.55" y="162.5791">SuperEasyShare.provided</text><line style="stroke:#181818;stroke-width:0.5;" x1="10" x2="228" y1="169.9375" y2="169.9375"/><polygon fill="none" points="20,179.5859,16,185.5859,24,185.5859" style="stroke:#1963A0;stroke-width:1.0;"/><text fill="#000000" font-family="sans-serif" font-size="14" lengthAdjust="spacing" textLength="50" x="29" y="186.9326">day: int</text><polygon fill="none" points="20,195.8828,16,201.8828,24,201.8828" style="stroke:#1963A0;stroke-width:1.0;"/><text fill="#000000" font-family="sans-serif" font-size="14" lengthAdjust="spacing" textLength="71" x="29" y="203.2295">month: int</text><polygon fill="none" points="20,212.1797,16,218.1797,24,218.1797" style="stroke:#1963A0;stroke-width:1.0;"/><text fill="#000000" font-family="sans-serif" font-size="14" lengthAdjust="spacing" textLength="55" x="29" y="219.5264">year: int</text><polygon fill="none" points="20,228.4766,16,234.4766,24,234.4766" style="stroke:#1963A0;stroke-width:1.0;"/><text fill="#000000" font-family="sans-serif" font-size="14" lengthAdjust="spacing" textLength="40" x="29" y="235.8232">hr: int</text><polygon fill="none" points="20,244.7734,16,250.7734,24,250.7734" style="stroke:#1963A0;stroke-width:1.0;"/><text fill="#000000" font-family="sans-serif" font-size="14" lengthAdjust="spacing" textLength="51" x="29" y="252.1201">min: int</text><line style="stroke:#181818;stroke-width:0.5;" x1="10" x2="228" y1="259.4219" y2="259.4219"/><ellipse cx="20" cy="273.0703" fill="#84BE84" rx="3" ry="3" style="stroke:#038048;stroke-width:1.0;"/><text fill="#000000" font-family="sans-serif" font-size="14" lengthAdjust="spacing" textLength="194" x="29" y="276.417">DateTime(int, int, int, int, int)</text><ellipse cx="20" cy="289.3672" fill="#84BE84" rx="3" ry="3" style="stroke:#038048;stroke-width:1.0;"/><text fill="#000000" font-family="sans-serif" font-size="14" lengthAdjust="spacing" textLength="144" x="29" y="292.7139">DateTime(DateTime)</text><ellipse cx="20" cy="305.6641" fill="#84BE84" rx="3" ry="3" style="stroke:#038048;stroke-width:1.0;"/><text fill="#000000" font-family="sans-serif" font-size="14" lengthAdjust="spacing" textLength="182" x="29" y="309.0107">compareTo(DateTime): int</text><ellipse cx="20" cy="321.9609" fill="#84BE84" rx="3" ry="3" style="stroke:#038048;stroke-width:1.0;"/><text fill="#000000" font-family="sans-serif" font-size="14" lengthAdjust="spacing" textLength="62" x="29" y="325.3076">ts(): long</text><rect fill="#F24D5C" height="6" style="stroke:#C82930;stroke-width:1.0;" width="6" x="17" y="335.2578"/><text fill="#000000" font-family="sans-serif" font-size="14" lengthAdjust="spacing" textLength="71" x="29" y="341.6045">uts(): long</text><ellipse cx="20" cy="354.5547" fill="#84BE84" rx="3" ry="3" style="stroke:#038048;stroke-width:1.0;"/><text fill="#000000" font-family="sans-serif" font-size="14" lengthAdjust="spacing" textLength="136" x="29" y="357.9014">diff(DateTime): long</text></g></a><!--class java.lang.Comparable--><g id="elem_java.lang.Comparable"><rect codeLine="19" fill="#F1F1F1" height="62.2344" id="java.lang.Comparable" rx="2.5" ry="2.5" style="stroke:#181818;stroke-width:0.5;" width="208" x="15" y="10"/><ellipse cx="43.5" cy="28.9688" fill="#B4A7E5" rx="11" ry="11" style="stroke:#181818;stroke-width:1.0;"/><path d="M39.4219,24.7344 L39.4219,22.5781 L46.8125,22.5781 L46.8125,24.7344 L44.3438,24.7344 L44.3438,32.8125 L46.8125,32.8125 L46.8125,34.9688 L39.4219,34.9688 L39.4219,32.8125 L41.8906,32.8125 L41.8906,24.7344 L39.4219,24.7344 Z " fill="#000000"/><text fill="#000000" font-family="sans-serif" font-size="14" font-style="italic" lengthAdjust="spacing" textLength="83" x="60.5" y="27.9951">Comparable</text><text fill="#000000" font-family="sans-serif" font-size="10" font-style="italic" lengthAdjust="spacing" textLength="45" x="79.5" y="40.5791">java.lang</text><rect fill="#FFFFFF" height="15.9688" style="stroke:#181818;stroke-width:1.0;stroke-dasharray:2.0,2.0;" width="61" x="165" y="7"/><text fill="#000000" font-family="sans-serif" font-size="12" font-style="italic" lengthAdjust="spacing" textLength="59" x="166" y="19.1387">DateTime</text><line style="stroke:#181818;stroke-width:0.5;" x1="16" x2="222" y1="47.9375" y2="47.9375"/><ellipse cx="26" cy="61.5859" fill="#84BE84" rx="3" ry="3" style="stroke:#038048;stroke-width:1.0;"/><text fill="#000000" font-family="sans-serif" font-size="14" font-style="italic" lengthAdjust="spacing" textLength="182" x="35" y="64.9326">compareTo(DateTime): int</text></g><!--reverse link java.lang.Comparable to SuperEasyShare.provided.DateTime--><g id="link_java.lang.Comparable_SuperEasyShare.provided.DateTime"><path codeLine="23" d="M119,92.53 C119,104.67 119,118.14 119,131.92 " fill="none" id="java.lang.Comparable-backto-SuperEasyShare.provided.DateTime" style="stroke:#181818;stroke-width:1.0;stroke-dasharray:7.0,7.0;"/><polygon fill="none" points="112,92.32,119,72.32,126,92.32,112,92.32" style="stroke:#181818;stroke-width:1.0;"/></g><text fill="#888888" font-family="sans-serif" font-size="10" lengthAdjust="spacing" textLength="186" x="18" y="380.4854">UMLDoclet 2.1.0, PlantUML 1.2022.14</text><!--SRC=[XP9VRu8m5CNVzobkJ9PWT8qkUpA6bxctBLc2Ut8-NE4YNVg7j9M4EVVPLvWeCXPvWF8xpJbjJm40B3bGACdc65D4EHfqse3IYcwy31bF24ZcheIKaqXibqfocVQuvh50Qs4mj_oJPjE7S86EbbpIkpgYIHZjSZ9FQCieGqCiDxhmPia0qC8_6cjiOBLgXYnpKgpNiAzpg-SxmN86NBapaLgvhCDAGjD1MHT8hYx9g8aDF1t3tzUmPsepQ6cnblw4QQdFOYV8sS0ZeTNsnEvsFN2Ky3HjkvpKmsyLtfLCwajjrV5On-D6j0lvm0APGBMjApZziVFaUHCJjevxZnlh3CRkS6LRn_Nq6SFyYx6hhH-l5bKRWbJhwlFsyhpGiV2NzvvDsMGChzxQUGgt1HdBjGg6Fm00]--></g></svg>