<?xml version="1.0" encoding="UTF-8" standalone="no"?><svg xmlns="http://www.w3.org/2000/svg" xmlns:xlink="http://www.w3.org/1999/xlink" contentStyleType="text/css" height="605px" preserveAspectRatio="none" style="width:667px;height:605px;background:#FFFFFF;" version="1.1" viewBox="0 0 667 605" width="667px" zoomAndPan="magnify"><defs/><g><!--cluster SuperEasyShare.provided--><g id="cluster_SuperEasyShare.provided"><path d="M8.5,145 L213.5,145 A3.75,3.75 0 0 1 216,147.5 L223,167.2969 L657.5,167.2969 A2.5,2.5 0 0 1 660,169.7969 L660,577.5 A2.5,2.5 0 0 1 657.5,580 L8.5,580 A2.5,2.5 0 0 1 6,577.5 L6,147.5 A2.5,2.5 0 0 1 8.5,145 " fill="none" style="stroke:#000000;stroke-width:1.5;"/><line style="stroke:#000000;stroke-width:1.5;" x1="6" x2="223" y1="167.2969" y2="167.2969"/><text fill="#000000" font-family="sans-serif" font-size="14" font-weight="bold" lengthAdjust="spacing" textLength="204" x="10" y="159.9951">SuperEasyShare.provided</text></g><!--cluster java.lang--><g id="cluster_java.lang"><path d="M43.5,6 L113.5,6 A3.75,3.75 0 0 1 116,8.5 L123,28.2969 L220.5,28.2969 A2.5,2.5 0 0 1 223,30.7969 L223,118.5 A2.5,2.5 0 0 1 220.5,121 L43.5,121 A2.5,2.5 0 0 1 41,118.5 L41,8.5 A2.5,2.5 0 0 1 43.5,6 " fill="none" style="stroke:#000000;stroke-width:1.5;"/><line style="stroke:#000000;stroke-width:1.5;" x1="41" x2="123" y1="28.2969" y2="28.2969"/><text fill="#000000" font-family="sans-serif" font-size="14" font-weight="bold" lengthAdjust="spacing" textLength="69" x="45" y="20.9951">java.lang</text></g><!--class SuperEasyShare.provided.Car--><a href="Car.html" target="_top" title="Car.html" xlink:actuate="onRequest" xlink:href="Car.html" xlink:show="new" xlink:title="Car.html" xlink:type="simple"><g id="elem_SuperEasyShare.provided.Car"><rect codeLine="3" fill="#F1F1F1" height="194.6719" id="SuperEasyShare.provided.Car" rx="2.5" ry="2.5" style="stroke:#181818;stroke-width:0.5;" width="218" x="277" y="196"/><ellipse cx="370.25" cy="212" fill="#ADD1B2" rx="11" ry="11" style="stroke:#181818;stroke-width:1.0;"/><path d="M373.2188,217.6406 Q372.6406,217.9375 372,218.0781 Q371.3594,218.2344 370.6563,218.2344 Q368.1563,218.2344 366.8281,216.5938 Q365.5156,214.9375 365.5156,211.8125 Q365.5156,208.6875 366.8281,207.0313 Q368.1563,205.375 370.6563,205.375 Q371.3594,205.375 372,205.5313 Q372.6563,205.6875 373.2188,205.9844 L373.2188,208.7031 Q372.5938,208.125 372,207.8594 Q371.4063,207.5781 370.7813,207.5781 Q369.4375,207.5781 368.75,208.6563 Q368.0625,209.7188 368.0625,211.8125 Q368.0625,213.9063 368.75,214.9844 Q369.4375,216.0469 370.7813,216.0469 Q371.4063,216.0469 372,215.7813 Q372.5938,215.5 373.2188,214.9219 L373.2188,217.6406 Z " fill="#000000"/><text fill="#000000" font-family="sans-serif" font-size="14" lengthAdjust="spacing" textLength="23" x="390.75" y="216.8467">Car</text><line style="stroke:#181818;stroke-width:0.5;" x1="278" x2="494" y1="228" y2="228"/><rect fill="none" height="6" style="stroke:#C82930;stroke-width:1.0;" width="6" x="285" y="238.6484"/><text fill="#000000" font-family="sans-serif" font-size="14" lengthAdjust="spacing" textLength="87" x="297" y="244.9951">make: String</text><rect fill="none" height="6" style="stroke:#C82930;stroke-width:1.0;" width="6" x="285" y="254.9453"/><text fill="#000000" font-family="sans-serif" font-size="14" lengthAdjust="spacing" textLength="92" x="297" y="261.292">model: String</text><rect fill="none" height="6" style="stroke:#C82930;stroke-width:1.0;" width="6" x="285" y="271.2422"/><text fill="#000000" font-family="sans-serif" font-size="14" lengthAdjust="spacing" textLength="127" x="297" y="277.5889">registration: String</text><line style="stroke:#181818;stroke-width:0.5;" x1="278" x2="494" y1="284.8906" y2="284.8906"/><ellipse cx="288" cy="298.5391" fill="#84BE84" rx="3" ry="3" style="stroke:#038048;stroke-width:1.0;"/><text fill="#000000" font-family="sans-serif" font-size="14" lengthAdjust="spacing" textLength="33" x="297" y="301.8857">Car()</text><ellipse cx="288" cy="314.8359" fill="#84BE84" rx="3" ry="3" style="stroke:#038048;stroke-width:1.0;"/><text fill="#000000" font-family="sans-serif" font-size="14" lengthAdjust="spacing" textLength="56" x="297" y="318.1826">Car(Car)</text><ellipse cx="288" cy="331.1328" fill="#84BE84" rx="3" ry="3" style="stroke:#038048;stroke-width:1.0;"/><text fill="#000000" font-family="sans-serif" font-size="14" lengthAdjust="spacing" textLength="169" x="297" y="334.4795">Car(String, String, String)</text><ellipse cx="288" cy="347.4297" fill="#84BE84" rx="3" ry="3" style="stroke:#038048;stroke-width:1.0;"/><text fill="#000000" font-family="sans-serif" font-size="14" lengthAdjust="spacing" textLength="146" x="297" y="350.7764">setMake(String): void</text><ellipse cx="288" cy="363.7266" fill="#84BE84" rx="3" ry="3" style="stroke:#038048;stroke-width:1.0;"/><text fill="#000000" font-family="sans-serif" font-size="14" lengthAdjust="spacing" textLength="151" x="297" y="367.0732">setModel(String): void</text><ellipse cx="288" cy="380.0234" fill="#84BE84" rx="3" ry="3" style="stroke:#038048;stroke-width:1.0;"/><text fill="#000000" font-family="sans-serif" font-size="14" lengthAdjust="spacing" textLength="192" x="297" y="383.3701">setRegistration(String): void</text></g></a><!--class SuperEasyShare.provided.DateTime--><a href="DateTime.html" target="_top" title="DateTime.html" xlink:actuate="onRequest" xlink:href="DateTime.html" xlink:show="new" xlink:title="DateTime.html" xlink:type="simple"><g id="elem_SuperEasyShare.provided.DateTime"><rect codeLine="15" fill="#F1F1F1" height="227.2656" id="SuperEasyShare.provided.DateTime" rx="2.5" ry="2.5" style="stroke:#181818;stroke-width:0.5;" width="220" x="22" y="180"/><ellipse cx="94.25" cy="196" fill="#ADD1B2" rx="11" ry="11" style="stroke:#181818;stroke-width:1.0;"/><path d="M97.2188,201.6406 Q96.6406,201.9375 96,202.0781 Q95.3594,202.2344 94.6563,202.2344 Q92.1563,202.2344 90.8281,200.5938 Q89.5156,198.9375 89.5156,195.8125 Q89.5156,192.6875 90.8281,191.0313 Q92.1563,189.375 94.6563,189.375 Q95.3594,189.375 96,189.5313 Q96.6563,189.6875 97.2188,189.9844 L97.2188,192.7031 Q96.5938,192.125 96,191.8594 Q95.4063,191.5781 94.7813,191.5781 Q93.4375,191.5781 92.75,192.6563 Q92.0625,193.7188 92.0625,195.8125 Q92.0625,197.9063 92.75,198.9844 Q93.4375,200.0469 94.7813,200.0469 Q95.4063,200.0469 96,199.7813 Q96.5938,199.5 97.2188,198.9219 L97.2188,201.6406 Z " fill="#000000"/><text fill="#000000" font-family="sans-serif" font-size="14" lengthAdjust="spacing" textLength="67" x="114.75" y="200.8467">DateTime</text><line style="stroke:#181818;stroke-width:0.5;" x1="23" x2="241" y1="212" y2="212"/><polygon fill="none" points="33,221.6484,29,227.6484,37,227.6484" style="stroke:#1963A0;stroke-width:1.0;"/><text fill="#000000" font-family="sans-serif" font-size="14" lengthAdjust="spacing" textLength="50" x="42" y="228.9951">day: int</text><polygon fill="none" points="33,237.9453,29,243.9453,37,243.9453" style="stroke:#1963A0;stroke-width:1.0;"/><text fill="#000000" font-family="sans-serif" font-size="14" lengthAdjust="spacing" textLength="71" x="42" y="245.292">month: int</text><polygon fill="none" points="33,254.2422,29,260.2422,37,260.2422" style="stroke:#1963A0;stroke-width:1.0;"/><text fill="#000000" font-family="sans-serif" font-size="14" lengthAdjust="spacing" textLength="55" x="42" y="261.5889">year: int</text><polygon fill="none" points="33,270.5391,29,276.5391,37,276.5391" style="stroke:#1963A0;stroke-width:1.0;"/><text fill="#000000" font-family="sans-serif" font-size="14" lengthAdjust="spacing" textLength="40" x="42" y="277.8857">hr: int</text><polygon fill="none" points="33,286.8359,29,292.8359,37,292.8359" style="stroke:#1963A0;stroke-width:1.0;"/><text fill="#000000" font-family="sans-serif" font-size="14" lengthAdjust="spacing" textLength="51" x="42" y="294.1826">min: int</text><line style="stroke:#181818;stroke-width:0.5;" x1="23" x2="241" y1="301.4844" y2="301.4844"/><ellipse cx="33" cy="315.1328" fill="#84BE84" rx="3" ry="3" style="stroke:#038048;stroke-width:1.0;"/><text fill="#000000" font-family="sans-serif" font-size="14" lengthAdjust="spacing" textLength="194" x="42" y="318.4795">DateTime(int, int, int, int, int)</text><ellipse cx="33" cy="331.4297" fill="#84BE84" rx="3" ry="3" style="stroke:#038048;stroke-width:1.0;"/><text fill="#000000" font-family="sans-serif" font-size="14" lengthAdjust="spacing" textLength="144" x="42" y="334.7764">DateTime(DateTime)</text><ellipse cx="33" cy="347.7266" fill="#84BE84" rx="3" ry="3" style="stroke:#038048;stroke-width:1.0;"/><text fill="#000000" font-family="sans-serif" font-size="14" lengthAdjust="spacing" textLength="182" x="42" y="351.0732">compareTo(DateTime): int</text><ellipse cx="33" cy="364.0234" fill="#84BE84" rx="3" ry="3" style="stroke:#038048;stroke-width:1.0;"/><text fill="#000000" font-family="sans-serif" font-size="14" lengthAdjust="spacing" textLength="62" x="42" y="367.3701">ts(): long</text><rect fill="#F24D5C" height="6" style="stroke:#C82930;stroke-width:1.0;" width="6" x="30" y="377.3203"/><text fill="#000000" font-family="sans-serif" font-size="14" lengthAdjust="spacing" textLength="71" x="42" y="383.667">uts(): long</text><ellipse cx="33" cy="396.6172" fill="#84BE84" rx="3" ry="3" style="stroke:#038048;stroke-width:1.0;"/><text fill="#000000" font-family="sans-serif" font-size="14" lengthAdjust="spacing" textLength="136" x="42" y="399.9639">diff(DateTime): long</text></g></a><!--class SuperEasyShare.provided.TripStatus--><a href="TripStatus.html" target="_top" title="TripStatus.html" xlink:actuate="onRequest" xlink:href="TripStatus.html" xlink:show="new" xlink:title="TripStatus.html" xlink:type="simple"><g id="elem_SuperEasyShare.provided.TripStatus"><rect codeLine="29" fill="#F1F1F1" height="96.8906" id="SuperEasyShare.provided.TripStatus" rx="2.5" ry="2.5" style="stroke:#181818;stroke-width:0.5;" width="113" x="530.5" y="245"/><ellipse cx="550.45" cy="261" fill="#EB937F" rx="11" ry="11" style="stroke:#181818;stroke-width:1.0;"/><path d="M554.5594,267 L546.8406,267 L546.8406,254.6094 L554.5594,254.6094 L554.5594,256.7656 L549.2938,256.7656 L549.2938,259.4375 L554.0594,259.4375 L554.0594,261.5938 L549.2938,261.5938 L549.2938,264.8438 L554.5594,264.8438 L554.5594,267 Z " fill="#000000"/><text fill="#000000" font-family="sans-serif" font-size="14" lengthAdjust="spacing" textLength="70" x="565.55" y="265.8467">TripStatus</text><line style="stroke:#181818;stroke-width:0.5;" x1="531.5" x2="642.5" y1="277" y2="277"/><ellipse cx="541.5" cy="290.6484" fill="none" rx="3" ry="3" style="stroke:#038048;stroke-width:1.0;"/><text fill="#000000" font-family="sans-serif" font-size="14" lengthAdjust="spacing" text-decoration="underline" textLength="67" x="550.5" y="293.9951">CREATED</text><ellipse cx="541.5" cy="306.9453" fill="none" rx="3" ry="3" style="stroke:#038048;stroke-width:1.0;"/><text fill="#000000" font-family="sans-serif" font-size="14" lengthAdjust="spacing" text-decoration="underline" textLength="66" x="550.5" y="310.292">STARTED</text><ellipse cx="541.5" cy="323.2422" fill="none" rx="3" ry="3" style="stroke:#038048;stroke-width:1.0;"/><text fill="#000000" font-family="sans-serif" font-size="14" lengthAdjust="spacing" text-decoration="underline" textLength="87" x="550.5" y="326.5889">COMPLETED</text><line style="stroke:#181818;stroke-width:0.5;" x1="531.5" x2="642.5" y1="333.8906" y2="333.8906"/></g></a><!--class SuperEasyShare.provided.Customer--><a href="Customer.html" target="_top" title="Customer.html" xlink:actuate="onRequest" xlink:href="Customer.html" xlink:show="new" xlink:title="Customer.html" xlink:type="simple"><g id="elem_SuperEasyShare.provided.Customer"><rect codeLine="35" fill="#F1F1F1" height="96.8906" id="SuperEasyShare.provided.Customer" rx="2.5" ry="2.5" style="stroke:#181818;stroke-width:0.5;" width="172" x="300" y="467"/><ellipse cx="347.75" cy="483" fill="#ADD1B2" rx="11" ry="11" style="stroke:#181818;stroke-width:1.0;"/><path d="M350.7188,488.6406 Q350.1406,488.9375 349.5,489.0781 Q348.8594,489.2344 348.1563,489.2344 Q345.6563,489.2344 344.3281,487.5938 Q343.0156,485.9375 343.0156,482.8125 Q343.0156,479.6875 344.3281,478.0313 Q345.6563,476.375 348.1563,476.375 Q348.8594,476.375 349.5,476.5313 Q350.1563,476.6875 350.7188,476.9844 L350.7188,479.7031 Q350.0938,479.125 349.5,478.8594 Q348.9063,478.5781 348.2813,478.5781 Q346.9375,478.5781 346.25,479.6563 Q345.5625,480.7188 345.5625,482.8125 Q345.5625,484.9063 346.25,485.9844 Q346.9375,487.0469 348.2813,487.0469 Q348.9063,487.0469 349.5,486.7813 Q350.0938,486.5 350.7188,485.9219 L350.7188,488.6406 Z " fill="#000000"/><text fill="#000000" font-family="sans-serif" font-size="14" lengthAdjust="spacing" textLength="68" x="368.25" y="487.8467">Customer</text><line style="stroke:#181818;stroke-width:0.5;" x1="301" x2="471" y1="499" y2="499"/><rect fill="none" height="6" style="stroke:#C82930;stroke-width:1.0;" width="6" x="308" y="509.6484"/><text fill="#000000" font-family="sans-serif" font-size="14" lengthAdjust="spacing" textLength="88" x="320" y="515.9951">name: String</text><line style="stroke:#181818;stroke-width:0.5;" x1="301" x2="471" y1="523.2969" y2="523.2969"/><ellipse cx="311" cy="536.9453" fill="#84BE84" rx="3" ry="3" style="stroke:#038048;stroke-width:1.0;"/><text fill="#000000" font-family="sans-serif" font-size="14" lengthAdjust="spacing" textLength="118" x="320" y="540.292">Customer(String)</text><ellipse cx="311" cy="553.2422" fill="#84BE84" rx="3" ry="3" style="stroke:#038048;stroke-width:1.0;"/><text fill="#000000" font-family="sans-serif" font-size="14" lengthAdjust="spacing" textLength="146" x="320" y="556.5889">Customer(Customer)</text></g></a><!--class java.lang.Comparable--><g id="elem_java.lang.Comparable"><rect codeLine="45" fill="#F1F1F1" height="64.2969" id="java.lang.Comparable" rx="2.5" ry="2.5" style="stroke:#181818;stroke-width:0.5;" width="150" x="57" y="41"/><ellipse cx="82.8" cy="57" fill="#B4A7E5" rx="11" ry="11" style="stroke:#181818;stroke-width:1.0;"/><path d="M78.7219,52.7656 L78.7219,50.6094 L86.1125,50.6094 L86.1125,52.7656 L83.6438,52.7656 L83.6438,60.8438 L86.1125,60.8438 L86.1125,63 L78.7219,63 L78.7219,60.8438 L81.1906,60.8438 L81.1906,52.7656 L78.7219,52.7656 Z " fill="#000000"/><text fill="#000000" font-family="sans-serif" font-size="14" font-style="italic" lengthAdjust="spacing" textLength="83" x="99.2" y="61.8467">Comparable</text><rect fill="#FFFFFF" height="15.9688" style="stroke:#181818;stroke-width:1.0;stroke-dasharray:2.0,2.0;" width="9" x="201" y="38"/><text fill="#000000" font-family="sans-serif" font-size="12" font-style="italic" lengthAdjust="spacing" textLength="7" x="202" y="50.1387">T</text><line style="stroke:#181818;stroke-width:0.5;" x1="58" x2="206" y1="73" y2="73"/><line style="stroke:#181818;stroke-width:0.5;" x1="58" x2="206" y1="81" y2="81"/><ellipse cx="68" cy="94.6484" fill="#84BE84" rx="3" ry="3" style="stroke:#038048;stroke-width:1.0;"/><text fill="#000000" font-family="sans-serif" font-size="14" font-style="italic" lengthAdjust="spacing" textLength="124" x="77" y="97.9951">compareTo(T): int</text></g><!--reverse link java.lang.Comparable to SuperEasyShare.provided.DateTime--><g id="link_java.lang.Comparable_SuperEasyShare.provided.DateTime"><path codeLine="41" d="M132,125.35 C132,141.83 132,160.79 132,179.88 " fill="none" id="java.lang.Comparable-backto-SuperEasyShare.provided.DateTime" style="stroke:#181818;stroke-width:1.0;stroke-dasharray:7.0,7.0;"/><polygon fill="none" points="125,125.31,132,105.31,139,125.31,125,125.31" style="stroke:#181818;stroke-width:1.0;"/></g><text fill="#888888" font-family="sans-serif" font-size="10" lengthAdjust="spacing" textLength="186" x="233.5" y="595.2822">UMLDoclet 2.1.0, PlantUML 1.2022.14</text><!--SRC=[XLHHRu8m47xtLzpB4ecER7iqPebHtZGpmfwC3pSufHkbf2qcnhdVlk9KAfICXFRulg_jvVeT000vSb85nWHXMP0CK1t252NvXHHxbb02nruFBa-SeL8mHGdhjHdzLFDiip4Ai9v7ZbyqWb1BbkyQZ4WeSrEITanfYPg9tAaOc0FxNXiohmFzss08ztD3g4WlJAuNiJU2lM19Mr8b_OzcPMNV8JqropX3JH7ZP6fv3Tq5_KdmC0AMwtkKYrod3ln0A1rmwW8vozleu9fEtp13Q0zUX_mQDFXOyC8uAXArm76eLdq3Pw9fZBA362HikxLtl5DOrQQyv119LeGQTQbCkUiFTy6Fof0iFXahhO995Cmws32QhBhPwTjYEGzilcM1QQcqu7HkfqlOqLDLctQqnMLXtsdn6tiDF5SsdxX7FyDyvq_FTuKV6S7us_Tl9krPA-fVncsTbQwvM9BRYgtt6aUlpHBZHzKliJxP_eWQnZZPnyPKxGnR8QhfVJ6VYJWZ3I_-i_yqXAN9GniK7lOaLTM7tYy0]--></g></svg>